<svg xmlns="http://www.w3.org/2000/svg" version="1.1" xlink="http://www.w3.org/1999/xlink" xmlns:svgjs="http://svgjs.com/svgjs" width="100%" height="100%" preserveAspectRatio="xMidYMid meet" viewBox="0 0 199.3230743408203 146.99273681640625" overflow="visible"><defs id="SvgjsDefs3776"></defs><g id="SvgjsG3777" transform="scale(0.515970515970516)" opacity="1"><g id="SvgjsG3778" class="b4Y1btNE9" transform="translate(123.61733048052196, 0) scale(1.3906949679058713)" light-content="false" non-strokable="false" fill="#ff1801"><path d="M0 0h100v100H0z"></path></g><g id="SvgjsG3779" class="oTiPUuGhPZ" transform="translate(151.12218651243805, 27.504856031916106) scale(0.8405978472675488)" light-content="true" non-strokable="false" fill="#000000"><path d="M50 5C25.199 5 5 25.199 5 50s20.199 45 45 45 45-20.199 45-45S74.801 5 50 5zm0 87.602C26.5 92.602 7.398 73.5 7.398 50S26.5 7.398 50 7.398 92.602 26.5 92.602 50 73.5 92.602 50 92.602zM50 24.5c-14.102 0-25.5 11.398-25.5 25.5S35.898 75.5 50 75.5 75.5 64.102 75.5 50 64.102 24.5 50 24.5zm0 48.602c-12.801 0-23.102-10.398-23.102-23.102 0-12.801 10.398-23.102 23.102-23.102 12.699 0 23.102 10.301 23.102 23.102S62.801 73.102 50 73.102zM50 42.2c-4.3 0-7.8 3.5-7.8 7.8s3.5 7.802 7.8 7.802 7.8-3.5 7.8-7.801S54.3 42.2 50 42.2zm0 13.301c-3 0-5.5-2.398-5.5-5.5s2.398-5.398 5.5-5.398S55.5 47 55.5 50 53 55.5 50 55.5zm0-25.898c-11.301 0-20.5 9.2-20.5 20.398s9.2 20.5 20.5 20.5 20.5-9.2 20.5-20.5S61.3 29.603 50 29.603zm0 38.5c-10 0-18.102-8.102-18.102-18.102S40 31.899 50 31.899s18.102 8.102 18.102 18.102S60 68.103 50 68.103zM48.8 40.4v-6.5c0-.7.5-1.2 1.2-1.2s1.2.5 1.2 1.2v6.5c0 .7-.5 1.2-1.2 1.2-.7.003-1.2-.497-1.2-1.2zm2.4 19.102v6.5c0 .7-.5 1.2-1.2 1.2s-1.2-.5-1.2-1.2v-6.5c0-.7.5-1.2 1.2-1.2s1.2.5 1.2 1.2zm8.3-10.699H66c.7 0 1.2.5 1.2 1.2S66.7 51.2 66 51.2h-6.5c-.7 0-1.2-.5-1.2-1.199s.598-1.199 1.2-1.199zm-19 2.3H34c-.7 0-1.2-.5-1.2-1.198 0-.7.5-1.2 1.2-1.2h6.5c.7 0 1.2.5 1.2 1.2 0 .699-.598 1.199-1.2 1.199zm15.398-7.1c-.5-.5-.5-1.2 0-1.7l4.602-4.602c.5-.5 1.199-.5 1.699 0s.5 1.2 0 1.7L57.6 44.002c-.2.2-.5.301-.8.301s-.7 0-.903-.3zm-11.797 11.8c.5.5.5 1.2 0 1.7l-4.602 4.601c-.199.2-.5.3-.8.3s-.602-.1-.801-.3c-.5-.5-.5-1.2 0-1.7l4.601-4.6c.399-.403 1.102-.403 1.602 0zm18.098 4.7c.5.5.5 1.199 0 1.699-.2.199-.5.3-.8.3-.302 0-.602-.101-.802-.3L55.996 57.6c-.5-.5-.5-1.2 0-1.7s1.199-.5 1.699 0zM37.801 39.4c-.5-.5-.5-1.199 0-1.699s1.2-.5 1.7 0l4.6 4.602c.5.5.5 1.199 0 1.699-.198.2-.5.3-.8.3s-.602-.1-.8-.3z"></path></g><g id="SvgjsG3780" class="text" transform="translate(149.82, 284.8859722653673) scale(1)" light-content="false" fill="#000000"><path d="M-141.51 -43.12L-119.15 -43.12C-109.35 -43.12 -101.83 -45.81 -96.61 -51.2C-91.39 -56.59 -88.78 -64.31 -88.78 -74.36C-88.78 -84.22 -91.48 -91.96 -96.87 -97.6C-102.26 -103.23 -109.64 -106.04 -119.01 -106.04L-149.82 -106.04L-149.82 0L-141.51 0ZM-141.51 -50.91L-141.51 -98.18L-118.94 -98.18C-112.09 -98.18 -106.74 -96.04 -102.88 -91.77C-99.02 -87.5 -97.09 -81.65 -97.09 -74.22C-97.09 -66.79 -98.99 -61.05 -102.8 -56.99C-106.62 -52.94 -112.02 -50.91 -119.01 -50.91Z M-61.03 -7.72L-61.03 -106.04L-69.41 -106.04L-69.41 0L-17.33 0L-17.33 -7.72Z M49.38 -29.64L58.56 0L67.22 0L33.43 -106.04L25.71 -106.04L-8.08 0L0.58 0L9.61 -29.64ZM12.02 -37.44L29.5 -94.32L46.98 -37.44Z M149.67 0L149.67 -106.04L141.44 -106.04L141.44 -15.59L91.33 -106.04L82.96 -106.04L82.96 0L91.33 0L91.33 -90.31L141.37 0Z"></path></g><g id="SvgjsG3781" class="text" transform="translate(351.4572229067263, 284.8859722653673) scale(1)" light-content="false" fill="#000000"><path d="M-33.32 0L1.78 0C12.52 0 20.71 -2.62 26.37 -7.87C32.02 -13.11 34.85 -20.88 34.85 -31.17C34.85 -37.19 33.56 -42.26 30.99 -46.36C28.42 -50.46 24.75 -53.19 19.99 -54.55C24.12 -56.35 27.37 -59.19 29.75 -63.07C32.13 -66.96 33.32 -71.59 33.32 -76.98C33.32 -86.5 30.44 -93.72 24.69 -98.65C18.94 -103.58 10.52 -106.04 -0.55 -106.04L-33.32 -106.04ZM-11.91 -46.1L3.17 -46.1C10.06 -45.86 13.51 -40.98 13.51 -31.46C13.51 -27.09 12.52 -23.72 10.52 -21.34C8.53 -18.96 5.62 -17.77 1.78 -17.77L-11.91 -17.77ZM-11.91 -61.69L-11.91 -88.2L-0.55 -88.2C3.82 -88.2 6.98 -87.16 8.92 -85.07C10.86 -82.98 11.84 -79.53 11.84 -74.73C11.84 -66.04 7.64 -61.69 -0.76 -61.69Z"></path></g></g></svg>